<mxfile host="app.diagrams.net" agent="Mozilla/5.0 (Windows NT 10.0; Win64; x64) AppleWebKit/537.36 (KHTML, like Gecko) Chrome/131.0.0.0 Safari/537.36" version="25.0.3">
  <diagram name="第 1 页" id="O-JAYGMxtfNgu9QWobxc">
    <mxGraphModel dx="4094" dy="446" grid="1" gridSize="10" guides="1" tooltips="1" connect="1" arrows="1" fold="1" page="1" pageScale="1" pageWidth="3300" pageHeight="4681" math="0" shadow="0">
      <root>
        <mxCell id="0" />
        <mxCell id="1" parent="0" />
        <mxCell id="cSUb0s7sQzvSsTjn1v_9-1" value="" style="shape=umlLifeline;perimeter=lifelinePerimeter;whiteSpace=wrap;html=1;container=1;dropTarget=0;collapsible=0;recursiveResize=0;outlineConnect=0;portConstraint=eastwest;newEdgeStyle={&quot;curved&quot;:0,&quot;rounded&quot;:0};participant=umlActor;" vertex="1" parent="1">
          <mxGeometry x="30" y="30" width="20" height="2070" as="geometry" />
        </mxCell>
        <mxCell id="cSUb0s7sQzvSsTjn1v_9-2" value=":查看UI" style="shape=umlLifeline;perimeter=lifelinePerimeter;whiteSpace=wrap;html=1;container=1;dropTarget=0;collapsible=0;recursiveResize=0;outlineConnect=0;portConstraint=eastwest;newEdgeStyle={&quot;curved&quot;:0,&quot;rounded&quot;:0};" vertex="1" parent="1">
          <mxGeometry x="110" y="30" width="100" height="2070" as="geometry" />
        </mxCell>
        <mxCell id="cSUb0s7sQzvSsTjn1v_9-3" value="" style="html=1;points=[[0,0,0,0,5],[0,1,0,0,-5],[1,0,0,0,5],[1,1,0,0,-5]];perimeter=orthogonalPerimeter;outlineConnect=0;targetShapes=umlLifeline;portConstraint=eastwest;newEdgeStyle={&quot;curved&quot;:0,&quot;rounded&quot;:0};" vertex="1" parent="cSUb0s7sQzvSsTjn1v_9-2">
          <mxGeometry x="45" y="77" width="10" height="73" as="geometry" />
        </mxCell>
        <mxCell id="cSUb0s7sQzvSsTjn1v_9-4" value="" style="html=1;points=[[0,0,0,0,5],[0,1,0,0,-5],[1,0,0,0,5],[1,1,0,0,-5]];perimeter=orthogonalPerimeter;outlineConnect=0;targetShapes=umlLifeline;portConstraint=eastwest;newEdgeStyle={&quot;curved&quot;:0,&quot;rounded&quot;:0};" vertex="1" parent="cSUb0s7sQzvSsTjn1v_9-2">
          <mxGeometry x="45" y="220" width="10" height="30" as="geometry" />
        </mxCell>
        <mxCell id="cSUb0s7sQzvSsTjn1v_9-5" value="" style="html=1;points=[[0,0,0,0,5],[0,1,0,0,-5],[1,0,0,0,5],[1,1,0,0,-5]];perimeter=orthogonalPerimeter;outlineConnect=0;targetShapes=umlLifeline;portConstraint=eastwest;newEdgeStyle={&quot;curved&quot;:0,&quot;rounded&quot;:0};" vertex="1" parent="cSUb0s7sQzvSsTjn1v_9-2">
          <mxGeometry x="45" y="1040" width="10" height="41" as="geometry" />
        </mxCell>
        <mxCell id="cSUb0s7sQzvSsTjn1v_9-6" value=":建立UI" style="shape=umlLifeline;perimeter=lifelinePerimeter;whiteSpace=wrap;html=1;container=1;dropTarget=0;collapsible=0;recursiveResize=0;outlineConnect=0;portConstraint=eastwest;newEdgeStyle={&quot;curved&quot;:0,&quot;rounded&quot;:0};" vertex="1" parent="1">
          <mxGeometry x="248" y="31" width="100" height="2069" as="geometry" />
        </mxCell>
        <mxCell id="cSUb0s7sQzvSsTjn1v_9-7" value="" style="html=1;points=[[0,0,0,0,5],[0,1,0,0,-5],[1,0,0,0,5],[1,1,0,0,-5]];perimeter=orthogonalPerimeter;outlineConnect=0;targetShapes=umlLifeline;portConstraint=eastwest;newEdgeStyle={&quot;curved&quot;:0,&quot;rounded&quot;:0};" vertex="1" parent="cSUb0s7sQzvSsTjn1v_9-6">
          <mxGeometry x="45" y="249" width="10" height="111" as="geometry" />
        </mxCell>
        <mxCell id="cSUb0s7sQzvSsTjn1v_9-8" value=":確認資料UI" style="shape=umlLifeline;perimeter=lifelinePerimeter;whiteSpace=wrap;html=1;container=1;dropTarget=0;collapsible=0;recursiveResize=0;outlineConnect=0;portConstraint=eastwest;newEdgeStyle={&quot;curved&quot;:0,&quot;rounded&quot;:0};" vertex="1" parent="1">
          <mxGeometry x="502" y="31" width="100" height="2069" as="geometry" />
        </mxCell>
        <mxCell id="cSUb0s7sQzvSsTjn1v_9-9" value="" style="html=1;points=[[0,0,0,0,5],[0,1,0,0,-5],[1,0,0,0,5],[1,1,0,0,-5]];perimeter=orthogonalPerimeter;outlineConnect=0;targetShapes=umlLifeline;portConstraint=eastwest;newEdgeStyle={&quot;curved&quot;:0,&quot;rounded&quot;:0};" vertex="1" parent="cSUb0s7sQzvSsTjn1v_9-8">
          <mxGeometry x="45" y="397" width="10" height="253" as="geometry" />
        </mxCell>
        <mxCell id="cSUb0s7sQzvSsTjn1v_9-10" value="" style="html=1;points=[[0,0,0,0,5],[0,1,0,0,-5],[1,0,0,0,5],[1,1,0,0,-5]];perimeter=orthogonalPerimeter;outlineConnect=0;targetShapes=umlLifeline;portConstraint=eastwest;newEdgeStyle={&quot;curved&quot;:0,&quot;rounded&quot;:0};" vertex="1" parent="cSUb0s7sQzvSsTjn1v_9-8">
          <mxGeometry x="45" y="959" width="10" height="41" as="geometry" />
        </mxCell>
        <mxCell id="cSUb0s7sQzvSsTjn1v_9-11" value=":編輯UI" style="shape=umlLifeline;perimeter=lifelinePerimeter;whiteSpace=wrap;html=1;container=1;dropTarget=0;collapsible=0;recursiveResize=0;outlineConnect=0;portConstraint=eastwest;newEdgeStyle={&quot;curved&quot;:0,&quot;rounded&quot;:0};" vertex="1" parent="1">
          <mxGeometry x="788" y="30" width="100" height="2080" as="geometry" />
        </mxCell>
        <mxCell id="cSUb0s7sQzvSsTjn1v_9-12" value="" style="html=1;points=[[0,0,0,0,5],[0,1,0,0,-5],[1,0,0,0,5],[1,1,0,0,-5]];perimeter=orthogonalPerimeter;outlineConnect=0;targetShapes=umlLifeline;portConstraint=eastwest;newEdgeStyle={&quot;curved&quot;:0,&quot;rounded&quot;:0};" vertex="1" parent="cSUb0s7sQzvSsTjn1v_9-11">
          <mxGeometry x="45" y="656" width="10" height="104" as="geometry" />
        </mxCell>
        <mxCell id="cSUb0s7sQzvSsTjn1v_9-13" value=":傳送資料API" style="shape=umlLifeline;perimeter=lifelinePerimeter;whiteSpace=wrap;html=1;container=1;dropTarget=0;collapsible=0;recursiveResize=0;outlineConnect=0;portConstraint=eastwest;newEdgeStyle={&quot;curved&quot;:0,&quot;rounded&quot;:0};" vertex="1" parent="1">
          <mxGeometry x="651" y="30" width="100" height="2080" as="geometry" />
        </mxCell>
        <mxCell id="cSUb0s7sQzvSsTjn1v_9-14" value=":AC" style="shape=umlLifeline;perimeter=lifelinePerimeter;whiteSpace=wrap;html=1;container=1;dropTarget=0;collapsible=0;recursiveResize=0;outlineConnect=0;portConstraint=eastwest;newEdgeStyle={&quot;curved&quot;:0,&quot;rounded&quot;:0};" vertex="1" parent="1">
          <mxGeometry x="945" y="31" width="100" height="2079" as="geometry" />
        </mxCell>
        <mxCell id="cSUb0s7sQzvSsTjn1v_9-15" value="" style="html=1;points=[[0,0,0,0,5],[0,1,0,0,-5],[1,0,0,0,5],[1,1,0,0,-5]];perimeter=orthogonalPerimeter;outlineConnect=0;targetShapes=umlLifeline;portConstraint=eastwest;newEdgeStyle={&quot;curved&quot;:0,&quot;rounded&quot;:0};" vertex="1" parent="cSUb0s7sQzvSsTjn1v_9-14">
          <mxGeometry x="45" y="99" width="10" height="31" as="geometry" />
        </mxCell>
        <mxCell id="cSUb0s7sQzvSsTjn1v_9-16" value="" style="html=1;points=[[0,0,0,0,5],[0,1,0,0,-5],[1,0,0,0,5],[1,1,0,0,-5]];perimeter=orthogonalPerimeter;outlineConnect=0;targetShapes=umlLifeline;portConstraint=eastwest;newEdgeStyle={&quot;curved&quot;:0,&quot;rounded&quot;:0};" vertex="1" parent="cSUb0s7sQzvSsTjn1v_9-14">
          <mxGeometry x="45" y="429" width="10" height="31" as="geometry" />
        </mxCell>
        <mxCell id="cSUb0s7sQzvSsTjn1v_9-17" value="" style="html=1;points=[[0,0,0,0,5],[0,1,0,0,-5],[1,0,0,0,5],[1,1,0,0,-5]];perimeter=orthogonalPerimeter;outlineConnect=0;targetShapes=umlLifeline;portConstraint=eastwest;newEdgeStyle={&quot;curved&quot;:0,&quot;rounded&quot;:0};" vertex="1" parent="cSUb0s7sQzvSsTjn1v_9-14">
          <mxGeometry x="45" y="355" width="10" height="42" as="geometry" />
        </mxCell>
        <mxCell id="cSUb0s7sQzvSsTjn1v_9-18" value="" style="html=1;points=[[0,0,0,0,5],[0,1,0,0,-5],[1,0,0,0,5],[1,1,0,0,-5]];perimeter=orthogonalPerimeter;outlineConnect=0;targetShapes=umlLifeline;portConstraint=eastwest;newEdgeStyle={&quot;curved&quot;:0,&quot;rounded&quot;:0};" vertex="1" parent="cSUb0s7sQzvSsTjn1v_9-14">
          <mxGeometry x="45" y="669" width="10" height="31" as="geometry" />
        </mxCell>
        <mxCell id="cSUb0s7sQzvSsTjn1v_9-19" value="" style="html=1;points=[[0,0,0,0,5],[0,1,0,0,-5],[1,0,0,0,5],[1,1,0,0,-5]];perimeter=orthogonalPerimeter;outlineConnect=0;targetShapes=umlLifeline;portConstraint=eastwest;newEdgeStyle={&quot;curved&quot;:0,&quot;rounded&quot;:0};" vertex="1" parent="cSUb0s7sQzvSsTjn1v_9-14">
          <mxGeometry x="45" y="999" width="10" height="41" as="geometry" />
        </mxCell>
        <mxCell id="cSUb0s7sQzvSsTjn1v_9-20" value="查看備課資料" style="html=1;verticalAlign=bottom;endArrow=block;curved=0;rounded=0;" edge="1" parent="1" target="cSUb0s7sQzvSsTjn1v_9-2">
          <mxGeometry width="80" relative="1" as="geometry">
            <mxPoint x="40" y="110" as="sourcePoint" />
            <mxPoint x="120" y="110" as="targetPoint" />
          </mxGeometry>
        </mxCell>
        <mxCell id="cSUb0s7sQzvSsTjn1v_9-21" value="傳送顯示資料需求" style="html=1;verticalAlign=bottom;endArrow=block;curved=0;rounded=0;" edge="1" parent="1" target="cSUb0s7sQzvSsTjn1v_9-14">
          <mxGeometry width="80" relative="1" as="geometry">
            <mxPoint x="167" y="130" as="sourcePoint" />
            <mxPoint x="287" y="130" as="targetPoint" />
          </mxGeometry>
        </mxCell>
        <mxCell id="cSUb0s7sQzvSsTjn1v_9-22" value="顯示備課資料" style="html=1;verticalAlign=bottom;endArrow=none;curved=0;rounded=0;startArrow=classicThin;startFill=1;endFill=0;dashed=1;" edge="1" parent="1" target="cSUb0s7sQzvSsTjn1v_9-14">
          <mxGeometry width="80" relative="1" as="geometry">
            <mxPoint x="167" y="160" as="sourcePoint" />
            <mxPoint x="877" y="160" as="targetPoint" />
          </mxGeometry>
        </mxCell>
        <mxCell id="cSUb0s7sQzvSsTjn1v_9-23" value="點擊建立備課資料" style="html=1;verticalAlign=bottom;endArrow=block;curved=0;rounded=0;" edge="1" parent="1">
          <mxGeometry width="80" relative="1" as="geometry">
            <mxPoint x="40" y="250" as="sourcePoint" />
            <mxPoint x="160" y="250" as="targetPoint" />
          </mxGeometry>
        </mxCell>
        <mxCell id="cSUb0s7sQzvSsTjn1v_9-24" value="" style="html=1;verticalAlign=bottom;endArrow=block;curved=0;rounded=0;" edge="1" parent="1">
          <mxGeometry width="80" relative="1" as="geometry">
            <mxPoint x="160" y="280" as="sourcePoint" />
            <mxPoint x="297.5" y="280" as="targetPoint" />
          </mxGeometry>
        </mxCell>
        <mxCell id="cSUb0s7sQzvSsTjn1v_9-25" value="顯示備課資料的輸入框" style="edgeLabel;html=1;align=center;verticalAlign=middle;resizable=0;points=[];" vertex="1" connectable="0" parent="cSUb0s7sQzvSsTjn1v_9-24">
          <mxGeometry x="-0.2436" y="1" relative="1" as="geometry">
            <mxPoint x="9" y="-10" as="offset" />
          </mxGeometry>
        </mxCell>
        <mxCell id="cSUb0s7sQzvSsTjn1v_9-26" value=":載入資料UI" style="shape=umlLifeline;perimeter=lifelinePerimeter;whiteSpace=wrap;html=1;container=1;dropTarget=0;collapsible=0;recursiveResize=0;outlineConnect=0;portConstraint=eastwest;newEdgeStyle={&quot;curved&quot;:0,&quot;rounded&quot;:0};" vertex="1" parent="1">
          <mxGeometry x="380" y="31" width="100" height="2079" as="geometry" />
        </mxCell>
        <mxCell id="cSUb0s7sQzvSsTjn1v_9-27" value="" style="html=1;points=[[0,0,0,0,5],[0,1,0,0,-5],[1,0,0,0,5],[1,1,0,0,-5]];perimeter=orthogonalPerimeter;outlineConnect=0;targetShapes=umlLifeline;portConstraint=eastwest;newEdgeStyle={&quot;curved&quot;:0,&quot;rounded&quot;:0};" vertex="1" parent="cSUb0s7sQzvSsTjn1v_9-26">
          <mxGeometry x="45" y="284" width="10" height="30" as="geometry" />
        </mxCell>
        <mxCell id="cSUb0s7sQzvSsTjn1v_9-28" value="opt" style="shape=umlFrame;whiteSpace=wrap;html=1;pointerEvents=0;" vertex="1" parent="1">
          <mxGeometry x="-30" y="290" width="480" height="80" as="geometry" />
        </mxCell>
        <mxCell id="cSUb0s7sQzvSsTjn1v_9-29" value="[有沒有附檔]" style="text;html=1;align=center;verticalAlign=middle;resizable=0;points=[];autosize=1;strokeColor=none;fillColor=none;" vertex="1" parent="1">
          <mxGeometry x="30" y="288" width="90" height="30" as="geometry" />
        </mxCell>
        <mxCell id="cSUb0s7sQzvSsTjn1v_9-30" value="&lt;div&gt;&lt;br&gt;&lt;/div&gt;&lt;div&gt;&lt;br&gt;&lt;/div&gt;" style="html=1;verticalAlign=bottom;endArrow=block;curved=0;rounded=0;" edge="1" parent="1" target="cSUb0s7sQzvSsTjn1v_9-26">
          <mxGeometry width="80" relative="1" as="geometry">
            <mxPoint x="40" y="318" as="sourcePoint" />
            <mxPoint x="167.5" y="318" as="targetPoint" />
          </mxGeometry>
        </mxCell>
        <mxCell id="cSUb0s7sQzvSsTjn1v_9-31" value="上傳附檔" style="edgeLabel;html=1;align=center;verticalAlign=middle;resizable=0;points=[];" vertex="1" connectable="0" parent="cSUb0s7sQzvSsTjn1v_9-30">
          <mxGeometry x="-0.1014" y="3" relative="1" as="geometry">
            <mxPoint y="-8" as="offset" />
          </mxGeometry>
        </mxCell>
        <mxCell id="cSUb0s7sQzvSsTjn1v_9-32" value="載入附檔" style="html=1;verticalAlign=bottom;endArrow=none;curved=0;rounded=0;startArrow=classicThin;startFill=1;endFill=0;dashed=1;" edge="1" parent="1">
          <mxGeometry width="80" relative="1" as="geometry">
            <mxPoint x="300" y="344" as="sourcePoint" />
            <mxPoint x="430" y="344" as="targetPoint" />
          </mxGeometry>
        </mxCell>
        <mxCell id="cSUb0s7sQzvSsTjn1v_9-33" value="" style="html=1;verticalAlign=bottom;endArrow=block;curved=0;rounded=0;" edge="1" parent="1">
          <mxGeometry width="80" relative="1" as="geometry">
            <mxPoint x="700" y="386" as="sourcePoint" />
            <mxPoint x="700" y="390" as="targetPoint" />
          </mxGeometry>
        </mxCell>
        <mxCell id="cSUb0s7sQzvSsTjn1v_9-34" value="傳送備課資料" style="edgeLabel;html=1;align=center;verticalAlign=middle;resizable=0;points=[];" vertex="1" connectable="0" parent="cSUb0s7sQzvSsTjn1v_9-33">
          <mxGeometry x="0.0381" relative="1" as="geometry">
            <mxPoint x="-9" y="-10" as="offset" />
          </mxGeometry>
        </mxCell>
        <mxCell id="cSUb0s7sQzvSsTjn1v_9-35" value="顯示推薦資料" style="html=1;verticalAlign=bottom;endArrow=none;curved=0;rounded=0;startArrow=classicThin;startFill=1;endFill=0;dashed=1;" edge="1" parent="1" source="cSUb0s7sQzvSsTjn1v_9-8">
          <mxGeometry width="80" relative="1" as="geometry">
            <mxPoint x="696.5" y="428" as="sourcePoint" />
            <mxPoint x="985" y="428" as="targetPoint" />
          </mxGeometry>
        </mxCell>
        <mxCell id="cSUb0s7sQzvSsTjn1v_9-36" value="loop" style="shape=umlFrame;whiteSpace=wrap;html=1;pointerEvents=0;" vertex="1" parent="1">
          <mxGeometry x="-40" y="440" width="1060" height="150" as="geometry" />
        </mxCell>
        <mxCell id="cSUb0s7sQzvSsTjn1v_9-37" value="請求推薦前資料" style="html=1;verticalAlign=bottom;endArrow=block;curved=0;rounded=0;" edge="1" parent="1" target="cSUb0s7sQzvSsTjn1v_9-14">
          <mxGeometry width="80" relative="1" as="geometry">
            <mxPoint x="560" y="460" as="sourcePoint" />
            <mxPoint x="640" y="460" as="targetPoint" />
          </mxGeometry>
        </mxCell>
        <mxCell id="cSUb0s7sQzvSsTjn1v_9-38" value="顯示推薦前資料" style="html=1;verticalAlign=bottom;endArrow=none;curved=0;rounded=0;startArrow=classicThin;startFill=1;endFill=0;dashed=1;exitX=1;exitY=0;exitDx=0;exitDy=5;exitPerimeter=0;" edge="1" parent="1" source="cSUb0s7sQzvSsTjn1v_9-39">
          <mxGeometry width="80" relative="1" as="geometry">
            <mxPoint x="450" y="490" as="sourcePoint" />
            <mxPoint x="985.5" y="490" as="targetPoint" />
          </mxGeometry>
        </mxCell>
        <mxCell id="cSUb0s7sQzvSsTjn1v_9-39" value="" style="html=1;points=[[0,0,0,0,5],[0,1,0,0,-5],[1,0,0,0,5],[1,1,0,0,-5]];perimeter=orthogonalPerimeter;outlineConnect=0;targetShapes=umlLifeline;portConstraint=eastwest;newEdgeStyle={&quot;curved&quot;:0,&quot;rounded&quot;:0};" vertex="1" parent="1">
          <mxGeometry x="293" y="488" width="10" height="42" as="geometry" />
        </mxCell>
        <mxCell id="cSUb0s7sQzvSsTjn1v_9-40" value="" style="html=1;verticalAlign=bottom;endArrow=block;curved=0;rounded=0;" edge="1" parent="1" target="cSUb0s7sQzvSsTjn1v_9-14">
          <mxGeometry width="80" relative="1" as="geometry">
            <mxPoint x="305" y="530" as="sourcePoint" />
            <mxPoint x="843" y="530" as="targetPoint" />
          </mxGeometry>
        </mxCell>
        <mxCell id="cSUb0s7sQzvSsTjn1v_9-41" value="傳送更改後備課資料" style="edgeLabel;html=1;align=center;verticalAlign=middle;resizable=0;points=[];" vertex="1" connectable="0" parent="cSUb0s7sQzvSsTjn1v_9-40">
          <mxGeometry x="0.0381" relative="1" as="geometry">
            <mxPoint x="-9" y="-10" as="offset" />
          </mxGeometry>
        </mxCell>
        <mxCell id="cSUb0s7sQzvSsTjn1v_9-42" value="[是否要重新傳送資料]" style="text;html=1;align=center;verticalAlign=middle;resizable=0;points=[];autosize=1;strokeColor=none;fillColor=none;" vertex="1" parent="1">
          <mxGeometry x="20" y="440" width="140" height="30" as="geometry" />
        </mxCell>
        <mxCell id="cSUb0s7sQzvSsTjn1v_9-43" value="提出修改提示" style="html=1;verticalAlign=bottom;endArrow=block;curved=0;rounded=0;" edge="1" parent="1" target="cSUb0s7sQzvSsTjn1v_9-39">
          <mxGeometry width="80" relative="1" as="geometry">
            <mxPoint x="40" y="508.5" as="sourcePoint" />
            <mxPoint x="160" y="508.5" as="targetPoint" />
          </mxGeometry>
        </mxCell>
        <mxCell id="cSUb0s7sQzvSsTjn1v_9-44" value="" style="html=1;points=[[0,0,0,0,5],[0,1,0,0,-5],[1,0,0,0,5],[1,1,0,0,-5]];perimeter=orthogonalPerimeter;outlineConnect=0;targetShapes=umlLifeline;portConstraint=eastwest;newEdgeStyle={&quot;curved&quot;:0,&quot;rounded&quot;:0};" vertex="1" parent="1">
          <mxGeometry x="990" y="530" width="10" height="31" as="geometry" />
        </mxCell>
        <mxCell id="cSUb0s7sQzvSsTjn1v_9-45" value="顯示推薦資料" style="html=1;verticalAlign=bottom;endArrow=none;curved=0;rounded=0;startArrow=classicThin;startFill=1;endFill=0;dashed=1;" edge="1" parent="1">
          <mxGeometry width="80" relative="1" as="geometry">
            <mxPoint x="560" y="560" as="sourcePoint" />
            <mxPoint x="985.5" y="561" as="targetPoint" />
          </mxGeometry>
        </mxCell>
        <mxCell id="cSUb0s7sQzvSsTjn1v_9-46" value="opt" style="shape=umlFrame;whiteSpace=wrap;html=1;pointerEvents=0;" vertex="1" parent="1">
          <mxGeometry x="-40" y="610" width="1060" height="260" as="geometry" />
        </mxCell>
        <mxCell id="cSUb0s7sQzvSsTjn1v_9-47" value="[是否要編輯資料]" style="text;html=1;align=center;verticalAlign=middle;resizable=0;points=[];autosize=1;strokeColor=none;fillColor=none;" vertex="1" parent="1">
          <mxGeometry x="35" y="610" width="110" height="30" as="geometry" />
        </mxCell>
        <mxCell id="cSUb0s7sQzvSsTjn1v_9-48" value="" style="html=1;verticalAlign=bottom;endArrow=block;curved=0;rounded=0;" edge="1" parent="1">
          <mxGeometry width="80" relative="1" as="geometry">
            <mxPoint x="560" y="683.5" as="sourcePoint" />
            <mxPoint x="700" y="684" as="targetPoint" />
          </mxGeometry>
        </mxCell>
        <mxCell id="cSUb0s7sQzvSsTjn1v_9-49" value="存取推薦備課資料的資料編號" style="edgeLabel;html=1;align=center;verticalAlign=middle;resizable=0;points=[];" vertex="1" connectable="0" parent="cSUb0s7sQzvSsTjn1v_9-48">
          <mxGeometry x="0.0381" relative="1" as="geometry">
            <mxPoint x="-9" y="-10" as="offset" />
          </mxGeometry>
        </mxCell>
        <mxCell id="cSUb0s7sQzvSsTjn1v_9-50" value="" style="html=1;verticalAlign=bottom;endArrow=block;curved=0;rounded=0;" edge="1" parent="1" target="cSUb0s7sQzvSsTjn1v_9-14">
          <mxGeometry width="80" relative="1" as="geometry">
            <mxPoint x="300" y="390" as="sourcePoint" />
            <mxPoint x="696" y="390" as="targetPoint" />
          </mxGeometry>
        </mxCell>
        <mxCell id="cSUb0s7sQzvSsTjn1v_9-51" value="點擊編輯資料" style="html=1;verticalAlign=bottom;endArrow=block;curved=0;rounded=0;" edge="1" parent="1">
          <mxGeometry width="80" relative="1" as="geometry">
            <mxPoint x="40" y="640" as="sourcePoint" />
            <mxPoint x="551.5" y="640" as="targetPoint" />
          </mxGeometry>
        </mxCell>
        <mxCell id="cSUb0s7sQzvSsTjn1v_9-52" value="" style="html=1;verticalAlign=bottom;endArrow=block;curved=0;rounded=0;" edge="1" parent="1">
          <mxGeometry width="80" relative="1" as="geometry">
            <mxPoint x="710" y="684.5" as="sourcePoint" />
            <mxPoint x="830" y="685" as="targetPoint" />
          </mxGeometry>
        </mxCell>
        <mxCell id="cSUb0s7sQzvSsTjn1v_9-53" value="傳送推薦備課資料的資料編號" style="edgeLabel;html=1;align=center;verticalAlign=middle;resizable=0;points=[];" vertex="1" connectable="0" parent="cSUb0s7sQzvSsTjn1v_9-52">
          <mxGeometry x="0.0381" relative="1" as="geometry">
            <mxPoint x="-9" y="-10" as="offset" />
          </mxGeometry>
        </mxCell>
        <mxCell id="cSUb0s7sQzvSsTjn1v_9-54" value="" style="html=1;verticalAlign=bottom;endArrow=block;curved=0;rounded=0;" edge="1" parent="1" target="cSUb0s7sQzvSsTjn1v_9-14">
          <mxGeometry width="80" relative="1" as="geometry">
            <mxPoint x="850" y="700" as="sourcePoint" />
            <mxPoint x="970" y="700.5" as="targetPoint" />
          </mxGeometry>
        </mxCell>
        <mxCell id="cSUb0s7sQzvSsTjn1v_9-55" value="請求資料編號裡的資料" style="edgeLabel;html=1;align=center;verticalAlign=middle;resizable=0;points=[];" vertex="1" connectable="0" parent="cSUb0s7sQzvSsTjn1v_9-54">
          <mxGeometry x="0.0381" relative="1" as="geometry">
            <mxPoint x="-9" y="-10" as="offset" />
          </mxGeometry>
        </mxCell>
        <mxCell id="cSUb0s7sQzvSsTjn1v_9-56" value="顯示資料" style="html=1;verticalAlign=bottom;endArrow=none;curved=0;rounded=0;startArrow=classicThin;startFill=1;endFill=0;dashed=1;" edge="1" parent="1">
          <mxGeometry width="80" relative="1" as="geometry">
            <mxPoint x="846" y="730" as="sourcePoint" />
            <mxPoint x="996" y="730" as="targetPoint" />
          </mxGeometry>
        </mxCell>
        <mxCell id="cSUb0s7sQzvSsTjn1v_9-57" value="提出要編輯資料" style="html=1;verticalAlign=bottom;endArrow=block;curved=0;rounded=0;" edge="1" parent="1" target="cSUb0s7sQzvSsTjn1v_9-11">
          <mxGeometry width="80" relative="1" as="geometry">
            <mxPoint x="42.25" y="760" as="sourcePoint" />
            <mxPoint x="553.75" y="760" as="targetPoint" />
          </mxGeometry>
        </mxCell>
        <mxCell id="cSUb0s7sQzvSsTjn1v_9-58" value="" style="html=1;verticalAlign=bottom;endArrow=block;curved=0;rounded=0;" edge="1" parent="1" target="cSUb0s7sQzvSsTjn1v_9-14">
          <mxGeometry width="80" relative="1" as="geometry">
            <mxPoint x="843" y="789" as="sourcePoint" />
            <mxPoint x="963" y="789.5" as="targetPoint" />
          </mxGeometry>
        </mxCell>
        <mxCell id="cSUb0s7sQzvSsTjn1v_9-59" value="傳送備課資料" style="edgeLabel;html=1;align=center;verticalAlign=middle;resizable=0;points=[];" vertex="1" connectable="0" parent="cSUb0s7sQzvSsTjn1v_9-58">
          <mxGeometry x="0.0381" relative="1" as="geometry">
            <mxPoint x="-9" y="-10" as="offset" />
          </mxGeometry>
        </mxCell>
        <mxCell id="cSUb0s7sQzvSsTjn1v_9-60" value="" style="html=1;points=[[0,0,0,0,5],[0,1,0,0,-5],[1,0,0,0,5],[1,1,0,0,-5]];perimeter=orthogonalPerimeter;outlineConnect=0;targetShapes=umlLifeline;portConstraint=eastwest;newEdgeStyle={&quot;curved&quot;:0,&quot;rounded&quot;:0};" vertex="1" parent="1">
          <mxGeometry x="990" y="790" width="10" height="31" as="geometry" />
        </mxCell>
        <mxCell id="cSUb0s7sQzvSsTjn1v_9-61" value="顯示資料" style="html=1;verticalAlign=bottom;endArrow=none;curved=0;rounded=0;startArrow=classicThin;startFill=1;endFill=0;dashed=1;" edge="1" parent="1" source="cSUb0s7sQzvSsTjn1v_9-8">
          <mxGeometry width="80" relative="1" as="geometry">
            <mxPoint x="840" y="821" as="sourcePoint" />
            <mxPoint x="990" y="821" as="targetPoint" />
          </mxGeometry>
        </mxCell>
        <mxCell id="cSUb0s7sQzvSsTjn1v_9-62" value="" style="html=1;points=[[0,0,0,0,5],[0,1,0,0,-5],[1,0,0,0,5],[1,1,0,0,-5]];perimeter=orthogonalPerimeter;outlineConnect=0;targetShapes=umlLifeline;portConstraint=eastwest;newEdgeStyle={&quot;curved&quot;:0,&quot;rounded&quot;:0};" vertex="1" parent="1">
          <mxGeometry x="547" y="821" width="10" height="104" as="geometry" />
        </mxCell>
        <mxCell id="cSUb0s7sQzvSsTjn1v_9-63" value="提出儲存要求" style="html=1;verticalAlign=bottom;endArrow=block;curved=0;rounded=0;" edge="1" parent="1">
          <mxGeometry width="80" relative="1" as="geometry">
            <mxPoint x="35" y="990" as="sourcePoint" />
            <mxPoint x="550" y="990" as="targetPoint" />
          </mxGeometry>
        </mxCell>
        <mxCell id="cSUb0s7sQzvSsTjn1v_9-64" value="傳送儲存資料" style="html=1;verticalAlign=bottom;endArrow=block;curved=0;rounded=0;" edge="1" parent="1">
          <mxGeometry width="80" relative="1" as="geometry">
            <mxPoint x="557" y="1030" as="sourcePoint" />
            <mxPoint x="990" y="1030" as="targetPoint" />
          </mxGeometry>
        </mxCell>
        <mxCell id="cSUb0s7sQzvSsTjn1v_9-65" value="顯示儲存資料" style="html=1;verticalAlign=bottom;endArrow=none;curved=0;rounded=0;startArrow=classicThin;startFill=1;endFill=0;dashed=1;" edge="1" parent="1" source="cSUb0s7sQzvSsTjn1v_9-2">
          <mxGeometry width="80" relative="1" as="geometry">
            <mxPoint x="557" y="1070" as="sourcePoint" />
            <mxPoint x="995" y="1070" as="targetPoint" />
          </mxGeometry>
        </mxCell>
      </root>
    </mxGraphModel>
  </diagram>
</mxfile>
